<svg width="666" height="177" viewBox="0 0 666 177" fill="none" xmlns="http://www.w3.org/2000/svg">
<path d="M77.9655 18.2714C83.2467 15.2429 89.7533 15.2429 95.0344 18.2714L143.466 46.0445C148.747 49.073 152 54.6699 152 60.7269V116.273C152 122.33 148.747 127.927 143.466 130.956L95.0344 158.729C89.7533 161.757 83.2467 161.757 77.9655 158.729L29.5344 130.956C24.2533 127.927 21 122.33 21 116.273V60.7269C21 54.6699 24.2533 49.073 29.5344 46.0445L77.9655 18.2714Z" fill="#FFE600"/>
<path d="M229.523 88.8182C229.523 94.3409 228.526 99.1136 226.531 103.136C224.537 107.159 221.801 110.261 218.324 112.443C214.847 114.625 210.875 115.716 206.409 115.716C201.943 115.716 197.972 114.625 194.494 112.443C191.017 110.261 188.281 107.159 186.287 103.136C184.293 99.1136 183.295 94.3409 183.295 88.8182C183.295 83.2955 184.293 78.5227 186.287 74.5C188.281 70.4773 191.017 67.375 194.494 65.1932C197.972 63.0114 201.943 61.9205 206.409 61.9205C210.875 61.9205 214.847 63.0114 218.324 65.1932C221.801 67.375 224.537 70.4773 226.531 74.5C228.526 78.5227 229.523 83.2955 229.523 88.8182ZM223.386 88.8182C223.386 84.2841 222.628 80.4574 221.111 77.3381C219.611 74.2188 217.574 71.858 215 70.2557C212.443 68.6534 209.58 67.8523 206.409 67.8523C203.239 67.8523 200.366 68.6534 197.793 70.2557C195.236 71.858 193.199 74.2188 191.682 77.3381C190.182 80.4574 189.432 84.2841 189.432 88.8182C189.432 93.3523 190.182 97.179 191.682 100.298C193.199 103.418 195.236 105.778 197.793 107.381C200.366 108.983 203.239 109.784 206.409 109.784C209.58 109.784 212.443 108.983 215 107.381C217.574 105.778 219.611 103.418 221.111 100.298C222.628 97.179 223.386 93.3523 223.386 88.8182ZM255.321 115.818C251.639 115.818 248.469 114.949 245.81 113.21C243.151 111.472 241.105 109.077 239.673 106.026C238.241 102.974 237.526 99.4886 237.526 95.5682C237.526 91.5795 238.259 88.0597 239.724 85.0085C241.207 81.9403 243.27 79.5455 245.912 77.8239C248.571 76.0852 251.673 75.2159 255.219 75.2159C257.98 75.2159 260.469 75.7273 262.685 76.75C264.901 77.7727 266.716 79.2045 268.131 81.0455C269.545 82.8864 270.423 85.0341 270.764 87.4886H264.73C264.27 85.6989 263.247 84.1136 261.662 82.733C260.094 81.3352 257.98 80.6364 255.321 80.6364C252.969 80.6364 250.906 81.25 249.134 82.4773C247.378 83.6875 246.006 85.4006 245.017 87.6165C244.045 89.8153 243.56 92.3977 243.56 95.3636C243.56 98.3977 244.037 101.04 244.991 103.29C245.963 105.54 247.327 107.287 249.082 108.531C250.855 109.776 252.935 110.398 255.321 110.398C256.889 110.398 258.312 110.125 259.591 109.58C260.869 109.034 261.952 108.25 262.838 107.227C263.724 106.205 264.355 104.977 264.73 103.545H270.764C270.423 105.864 269.58 107.952 268.233 109.81C266.903 111.651 265.139 113.116 262.94 114.207C260.759 115.281 258.219 115.818 255.321 115.818ZM296.051 115.818C292.267 115.818 289.003 114.983 286.259 113.312C283.531 111.625 281.426 109.273 279.943 106.256C278.477 103.222 277.744 99.6932 277.744 95.6705C277.744 91.6477 278.477 88.1023 279.943 85.0341C281.426 81.9489 283.489 79.5455 286.131 77.8239C288.79 76.0852 291.892 75.2159 295.438 75.2159C297.483 75.2159 299.503 75.5568 301.497 76.2386C303.491 76.9205 305.307 78.0284 306.943 79.5625C308.58 81.0795 309.884 83.0909 310.855 85.5966C311.827 88.1023 312.312 91.1875 312.312 94.8523V97.4091H282.04V92.1932H306.176C306.176 89.9773 305.733 88 304.847 86.2614C303.977 84.5227 302.733 83.1506 301.114 82.1449C299.511 81.1392 297.619 80.6364 295.438 80.6364C293.034 80.6364 290.955 81.233 289.199 82.4261C287.46 83.6023 286.122 85.1364 285.185 87.0284C284.247 88.9205 283.778 90.9489 283.778 93.1136V96.5909C283.778 99.5568 284.29 102.071 285.312 104.134C286.352 106.179 287.793 107.739 289.634 108.812C291.474 109.869 293.614 110.398 296.051 110.398C297.636 110.398 299.068 110.176 300.347 109.733C301.642 109.273 302.759 108.591 303.696 107.688C304.634 106.767 305.358 105.625 305.869 104.261L311.699 105.898C311.085 107.875 310.054 109.614 308.605 111.114C307.156 112.597 305.366 113.756 303.236 114.591C301.105 115.409 298.71 115.818 296.051 115.818ZM333.048 115.92C330.56 115.92 328.301 115.452 326.273 114.514C324.244 113.56 322.634 112.188 321.44 110.398C320.247 108.591 319.651 106.409 319.651 103.852C319.651 101.602 320.094 99.7784 320.98 98.3807C321.866 96.9659 323.051 95.858 324.534 95.0568C326.017 94.2557 327.653 93.6591 329.443 93.267C331.25 92.858 333.065 92.5341 334.889 92.2955C337.276 91.9886 339.21 91.7585 340.693 91.6051C342.193 91.4347 343.284 91.1534 343.966 90.7614C344.665 90.3693 345.014 89.6875 345.014 88.7159V88.5114C345.014 85.9886 344.324 84.0284 342.943 82.6307C341.58 81.233 339.509 80.5341 336.73 80.5341C333.849 80.5341 331.591 81.1648 329.955 82.4261C328.318 83.6875 327.168 85.0341 326.503 86.4659L320.776 84.4205C321.798 82.0341 323.162 80.1761 324.866 78.8466C326.588 77.5 328.463 76.5625 330.491 76.0341C332.537 75.4886 334.548 75.2159 336.526 75.2159C337.787 75.2159 339.236 75.3693 340.872 75.6761C342.526 75.9659 344.119 76.571 345.653 77.4915C347.205 78.4119 348.491 79.8011 349.514 81.6591C350.537 83.517 351.048 86.0057 351.048 89.125V115H345.014V109.682H344.707C344.298 110.534 343.616 111.446 342.662 112.418C341.707 113.389 340.438 114.216 338.852 114.898C337.267 115.58 335.332 115.92 333.048 115.92ZM333.969 110.5C336.355 110.5 338.366 110.031 340.003 109.094C341.656 108.156 342.901 106.946 343.736 105.463C344.588 103.98 345.014 102.42 345.014 100.784V95.2614C344.759 95.5682 344.196 95.8494 343.327 96.1051C342.474 96.3437 341.486 96.5568 340.361 96.7443C339.253 96.9148 338.17 97.0682 337.114 97.2045C336.074 97.3239 335.23 97.4261 334.582 97.5114C333.014 97.7159 331.548 98.0483 330.185 98.5085C328.838 98.9517 327.747 99.625 326.912 100.528C326.094 101.415 325.685 102.625 325.685 104.159C325.685 106.256 326.46 107.841 328.011 108.915C329.58 109.972 331.565 110.5 333.969 110.5ZM368.096 91.375V115H362.062V75.7273H367.891V81.8636H368.403C369.323 79.8693 370.721 78.267 372.596 77.0568C374.471 75.8295 376.891 75.2159 379.857 75.2159C382.516 75.2159 384.843 75.7614 386.837 76.8523C388.832 77.9261 390.383 79.5625 391.491 81.7614C392.599 83.9432 393.153 86.7045 393.153 90.0455V115H387.119V90.4545C387.119 87.3693 386.317 84.9659 384.715 83.2443C383.113 81.5057 380.914 80.6364 378.119 80.6364C376.192 80.6364 374.471 81.054 372.954 81.8892C371.454 82.7244 370.269 83.9432 369.4 85.5455C368.531 87.1477 368.096 89.0909 368.096 91.375ZM424.02 98.6364H430.974L436.804 106.307L438.338 108.352L447.031 119.909H440.077L434.349 112.239L432.918 110.295L424.02 98.6364ZM449.179 88.8182C449.179 94.3409 448.182 99.1136 446.188 103.136C444.193 107.159 441.457 110.261 437.98 112.443C434.503 114.625 430.531 115.716 426.065 115.716C421.599 115.716 417.628 114.625 414.151 112.443C410.673 110.261 407.938 107.159 405.943 103.136C403.949 99.1136 402.952 94.3409 402.952 88.8182C402.952 83.2955 403.949 78.5227 405.943 74.5C407.938 70.4773 410.673 67.375 414.151 65.1932C417.628 63.0114 421.599 61.9205 426.065 61.9205C430.531 61.9205 434.503 63.0114 437.98 65.1932C441.457 67.375 444.193 70.4773 446.188 74.5C448.182 78.5227 449.179 83.2955 449.179 88.8182ZM443.043 88.8182C443.043 84.2841 442.284 80.4574 440.767 77.3381C439.267 74.2188 437.23 71.858 434.656 70.2557C432.099 68.6534 429.236 67.8523 426.065 67.8523C422.895 67.8523 420.023 68.6534 417.449 70.2557C414.892 71.858 412.855 74.2188 411.338 77.3381C409.838 80.4574 409.088 84.2841 409.088 88.8182C409.088 93.3523 409.838 97.179 411.338 100.298C412.855 103.418 414.892 105.778 417.449 107.381C420.023 108.983 422.895 109.784 426.065 109.784C429.236 109.784 432.099 108.983 434.656 107.381C437.23 105.778 439.267 103.418 440.767 100.298C442.284 97.179 443.043 93.3523 443.043 88.8182ZM483.773 98.9432V75.7273H489.807V115H483.773V108.352H483.364C482.443 110.347 481.011 112.043 479.068 113.44C477.125 114.821 474.67 115.511 471.705 115.511C469.25 115.511 467.068 114.974 465.159 113.901C463.25 112.81 461.75 111.173 460.659 108.991C459.568 106.793 459.023 104.023 459.023 100.682V75.7273H465.057V100.273C465.057 103.136 465.858 105.42 467.46 107.125C469.08 108.83 471.142 109.682 473.648 109.682C475.148 109.682 476.673 109.298 478.224 108.531C479.793 107.764 481.105 106.588 482.162 105.003C483.236 103.418 483.773 101.398 483.773 98.9432ZM517.325 115.818C513.54 115.818 510.276 114.983 507.532 113.312C504.805 111.625 502.7 109.273 501.217 106.256C499.751 103.222 499.018 99.6932 499.018 95.6705C499.018 91.6477 499.751 88.1023 501.217 85.0341C502.7 81.9489 504.762 79.5455 507.404 77.8239C510.063 76.0852 513.165 75.2159 516.711 75.2159C518.756 75.2159 520.776 75.5568 522.771 76.2386C524.765 76.9205 526.58 78.0284 528.217 79.5625C529.853 81.0795 531.157 83.0909 532.129 85.5966C533.1 88.1023 533.586 91.1875 533.586 94.8523V97.4091H503.313V92.1932H527.45C527.45 89.9773 527.006 88 526.12 86.2614C525.251 84.5227 524.006 83.1506 522.387 82.1449C520.785 81.1392 518.893 80.6364 516.711 80.6364C514.308 80.6364 512.228 81.233 510.472 82.4261C508.734 83.6023 507.396 85.1364 506.458 87.0284C505.521 88.9205 505.052 90.9489 505.052 93.1136V96.5909C505.052 99.5568 505.563 102.071 506.586 104.134C507.626 106.179 509.066 107.739 510.907 108.812C512.748 109.869 514.887 110.398 517.325 110.398C518.91 110.398 520.342 110.176 521.62 109.733C522.915 109.273 524.032 108.591 524.969 107.688C525.907 106.767 526.631 105.625 527.143 104.261L532.972 105.898C532.359 107.875 531.327 109.614 529.879 111.114C528.43 112.597 526.64 113.756 524.509 114.591C522.379 115.409 519.984 115.818 517.325 115.818ZM567.515 98.9432V75.7273H573.549V115H567.515V108.352H567.106C566.185 110.347 564.754 112.043 562.81 113.44C560.867 114.821 558.413 115.511 555.447 115.511C552.992 115.511 550.81 114.974 548.901 113.901C546.992 112.81 545.492 111.173 544.401 108.991C543.31 106.793 542.765 104.023 542.765 100.682V75.7273H548.799V100.273C548.799 103.136 549.6 105.42 551.202 107.125C552.822 108.83 554.884 109.682 557.39 109.682C558.89 109.682 560.415 109.298 561.967 108.531C563.535 107.764 564.847 106.588 565.904 105.003C566.978 103.418 567.515 101.398 567.515 98.9432ZM601.067 115.818C597.283 115.818 594.018 114.983 591.274 113.312C588.547 111.625 586.442 109.273 584.959 106.256C583.493 103.222 582.76 99.6932 582.76 95.6705C582.76 91.6477 583.493 88.1023 584.959 85.0341C586.442 81.9489 588.504 79.5455 591.146 77.8239C593.805 76.0852 596.908 75.2159 600.453 75.2159C602.499 75.2159 604.518 75.5568 606.513 76.2386C608.507 76.9205 610.322 78.0284 611.959 79.5625C613.595 81.0795 614.899 83.0909 615.871 85.5966C616.842 88.1023 617.328 91.1875 617.328 94.8523V97.4091H587.055V92.1932H611.192C611.192 89.9773 610.749 88 609.862 86.2614C608.993 84.5227 607.749 83.1506 606.129 82.1449C604.527 81.1392 602.635 80.6364 600.453 80.6364C598.05 80.6364 595.97 81.233 594.214 82.4261C592.476 83.6023 591.138 85.1364 590.2 87.0284C589.263 88.9205 588.794 90.9489 588.794 93.1136V96.5909C588.794 99.5568 589.305 102.071 590.328 104.134C591.368 106.179 592.808 107.739 594.649 108.812C596.49 109.869 598.629 110.398 601.067 110.398C602.652 110.398 604.084 110.176 605.362 109.733C606.658 109.273 607.774 108.591 608.712 107.688C609.649 106.767 610.374 105.625 610.885 104.261L616.714 105.898C616.101 107.875 615.07 109.614 613.621 111.114C612.172 112.597 610.382 113.756 608.251 114.591C606.121 115.409 603.726 115.818 601.067 115.818Z" fill="white"/>
</svg>
